<svg width="380" height="300" viewBox="0 0 380 300" fill="none" xmlns="http://www.w3.org/2000/svg">
<g clip-path="url(#clip0_331_2524)">
<path fill-rule="evenodd" clip-rule="evenodd" d="M129.306 72.5158C136.592 54.4007 150.794 26.4844 131.719 17.0321C88.2948 -4.48655 -0.215125 162.006 22.4376 179.863C40.8427 194.372 83.4713 163.629 93.815 133.89C97.7194 122.664 108.49 121.804 105.137 130.29C98.2249 147.784 92.1819 157.534 79.9313 175.919C77.0826 180.195 78.9193 187.919 82.085 186.636C92.4531 182.435 99.7137 177.705 105.687 167.439C112.892 155.054 129.062 132.197 139.671 137.545C147.841 123.149 161.017 121.297 167.577 127.23C173.66 132.731 168.933 135.375 176.409 135.971C180.306 136.282 179.122 128.302 183.028 128.462C187.054 128.626 193.265 132.164 188.871 136.965C181.179 145.368 177.513 153.603 176.639 164.568C172.142 174.557 163.074 180.9 164.92 185.716C169.034 196.448 183.254 177.392 191.889 168.304C210.506 148.709 237.407 100.695 246.643 129.532C248.073 133.995 247.44 140.518 245.69 141.494C242.961 143.015 240.12 142.852 237.715 140.858C233.011 136.96 193.612 174.46 199.013 185.925C204.162 196.857 233.9 174.257 247.907 157.721C260.644 142.686 280.46 111.149 294.491 133.346C302.198 145.538 279.052 169.734 256.044 168.903C248.424 168.628 247.479 180.307 250.049 187.486C253.741 197.8 256.358 196.448 269.386 184.011C292.189 162.243 312.134 148.785 321.325 123.937C328.358 104.924 340.191 52.2942 365.769 13.13C372.627 2.63 377.96 9.61207 377.233 14.0438C370.409 55.6206 344.766 106.744 335.101 121.022C325.435 135.299 324.134 145.329 327.369 142.488C339.775 131.59 358.093 122.035 356.358 143.795C354.928 161.738 315.633 178.586 329.078 190.275C339.551 199.379 354.201 190.846 365.759 183.167C373.174 178.24 377.501 180.596 377.143 185.078C376.428 194.049 327.196 212.191 321.483 191.174C319.841 185.132 322.234 169.164 319.923 172.992C318.019 176.146 318.49 178.396 313.725 181.527C310.951 183.349 307.127 184.022 305.252 180.851C302.761 176.64 304.55 170.764 313.518 158.939C314.679 157.407 308.99 159.125 309.192 156.588C309.59 151.604 283.144 187.616 259.524 200.781C237.963 212.797 244.476 174.502 238.764 178.059C226.624 185.618 215.587 200.236 196.721 195.774C190.323 194.261 190.538 185.25 186.552 184.932C178.578 184.296 172.503 203.876 155.654 195.009C150.182 192.129 113.736 223.769 103.615 180.829C86.7911 190.522 65.3384 209.395 59.7498 234.011C51.2491 271.454 23.6542 303.012 13.4362 299.037C8.0862 296.955 -2.98626 293.213 3.39941 267.64C7.08346 252.886 23.0076 235.596 50.4352 218.723C61.8186 211.719 62.7116 203.149 69.3464 189.132C70.2344 187.256 70.7189 178.206 63.6435 185.166C58.9959 189.738 -3.53485 209.906 13.1155 152.046C29.7659 94.1864 79.1786 -9.7157 137.577 6.476C164.777 17.661 149.813 48.0681 136.579 75.6154C133.336 82.3672 123.05 88.0679 129.306 72.5158ZM158.469 134.541C145.008 130.447 138.238 160.68 131.104 156.926C124.364 153.379 111.757 174.945 114.084 181.663C119.262 196.61 132.117 197.534 141.52 189.857C154.394 179.347 164.477 166.118 165.233 156.637C165.829 149.16 171.931 138.636 158.469 134.541ZM285.006 139.111C276.183 130.239 255.371 156.29 259.714 160.657C262.423 163.381 271.682 155.905 276.418 152.459C281.944 148.437 289.825 143.957 285.006 139.111ZM344.698 145.362C337.358 136.763 317.829 167.798 321.319 168.076C322.729 168.188 330.307 162.295 336.607 158.773C341.431 156.076 348.287 149.566 344.698 145.362ZM365.441 36.1649C358.9 30.1261 348.924 73.4704 342.17 88.9828C341.278 91.0329 349.246 82.023 353.728 69.8407C358.21 57.6583 371.982 42.2038 365.441 36.1649ZM20.0749 285.008C10.7496 289.11 9.20371 274.1 13.6498 264.934C23.2535 245.134 33.2033 244.123 46.7939 232.978C60.744 221.539 33.5901 279.063 20.0749 285.008Z" fill="#101353"/>
</g>
<defs>
<clipPath id="clip0_331_2524">
<rect width="380" height="300" fill="white"/>
</clipPath>
</defs>
</svg>
