<svg width="66" height="53" viewBox="0 0 66 53" fill="none" xmlns="http://www.w3.org/2000/svg">
<path d="M24.8479 21.4431L31.6062 28.084C31.6062 28.084 11.4693 48.8367 6.91779 52.8489C6.50402 53.1256 4.9664 53.0197 4.29724 52.5722C2.64216 51.4654 1.12501 50.3586 0.297454 48.56C-0.140286 47.6989 -0.132163 46.8074 0.573282 45.9313C3.35832 42.4725 24.8479 21.4431 24.8479 21.4431Z" fill="#444444"/>
<path fillRule="evenodd" clipRule="evenodd" d="M23.4686 14.6639C23.0548 14.2328 23.0657 12.5886 23.4686 12.1735C28.5718 6.91618 31.4682 4.14918 35.0542 0.413657C35.4952 -0.0457619 37.123 -0.220511 37.8126 0.413657C39.4677 1.93562 40.0194 2.489 41.3986 3.87245C41.6653 4.13987 42.1136 4.15511 42.3641 3.87245C43.4675 2.62736 44.2761 1.81227 45.6743 0.69036C46.3639 0.137003 47.3605 -0.0189316 48.2948 0.413657C50.0878 1.24382 51.0533 2.48894 52.4325 4.0108C53.0266 4.6663 53.1221 6.29359 52.4325 7.05453C51.0533 8.57641 50.2257 9.40652 48.9844 10.79C48.7682 11.031 48.7495 11.3975 48.9844 11.6201C51.4671 13.9721 54.2255 16.7391 54.2255 16.7391H65.8111C65.8111 16.7391 67.8744 28.084 58.3632 37.0768C51.1574 43.89 40.0194 42.7492 40.0194 42.7492L39.7436 31.266C39.7436 31.266 30.6406 22.1349 23.4686 14.6639ZM28.9855 13.0036C28.7114 13.2633 28.7251 13.6987 28.9855 13.9721C34.9162 20.1979 44.5709 29.4675 44.5709 29.4675V38.0453C44.5709 38.0453 48.2948 39.0137 54.9151 33.8947C61.1217 28.3607 61.1217 21.5814 61.1217 21.5814L52.2946 21.3047C52.2946 21.3047 42.3641 11.6201 36.7092 5.80937C36.5211 5.61606 36.2198 5.62865 36.0196 5.80937C33.2612 8.29971 31.4682 10.6517 28.9855 13.0036Z" fill="#444444"/>
</svg>
