<svg width="46" height="52" viewBox="0 0 46 52" fill="none" xmlns="http://www.w3.org/2000/svg">
<path fill-rule="evenodd" clip-rule="evenodd" d="M7.01922e-05 21.1556C0.000159205 16.2422 5.47612 9.69104 10.131 9.69104H13.8274V4.50468C13.8274 1.9017 16.145 0.00077452 18.756 0.000745851C21.7679 0.000712781 23.5955 0.000751969 26.6965 0.000745851C29.4346 0.00074045 31.8988 2.04795 31.8988 4.50468V9.69104H35.5953C39.7023 9.69104 46 15.9692 46 21.1556V45.859C46 49.3272 42.9681 51.2784 39.5655 52.0007V35.4863C39.5655 31.9057 36.5858 29.0716 32.9941 29.0716H13.006C9.37592 29.0716 6.29768 31.8674 6.29768 35.4863V52.0007C3.04243 51.2999 6.99369e-05 49.5885 7.01922e-05 46.2685C7.08114e-05 38.2159 -8.80495e-05 29.8905 7.01922e-05 21.1556ZM14.2381 21.1556C12.9015 21.1556 12.9015 17.7435 14.2381 17.7435H31.3512C33.2677 17.7435 33.1308 21.1556 31.3512 21.1556H14.2381ZM26.6965 9.69104H19.0297C18.8785 9.69104 18.756 9.56875 18.756 9.41802V5.5965C18.756 5.06355 19.0427 4.50468 19.5773 4.50468H26.2856C26.79 4.50468 26.9701 5.09368 26.9701 5.5965V9.41802C26.9701 9.56875 26.8477 9.69104 26.6965 9.69104Z" fill="currentColor"/>
<path d="M9.8572 35.0769V38.7619H35.8691V35.0769C35.8691 33.6026 34.4728 32.6202 32.9941 32.6202C26.0118 32.6202 19.8511 32.3472 13.006 32.3472C11.3764 32.3472 9.8572 33.4523 9.8572 35.0769Z" fill="currentColor"/>
<path d="M9.8572 42.4469H35.8691V52.0007H9.8572V42.4469Z" fill="currentColor"/>
</svg>
