<svg width="47" height="47" viewBox="0 0 47 47" fill="none" xmlns="http://www.w3.org/2000/svg">
<path d="M1.4841 31.8247C-1.34578 30.596 0.253651 25.8436 3.08359 26.6641C10.7118 28.8757 23.6308 33.7906 23.6308 33.7906C23.6308 33.7906 35.5654 29.1216 43.4398 26.6641C47.0078 25.5505 48.2382 30.8564 45.5314 31.8247C37.2878 34.7736 32.4895 36.7396 32.4895 36.7396C32.4895 36.7396 36.9188 38.4598 45.5314 41.7773C48.2382 42.8199 46.6387 48.0438 43.4398 46.815C36.1398 44.0109 23.6308 39.8113 23.6308 39.8113C23.6308 39.8113 8.49718 44.972 3.08359 46.815C0.376681 47.7366 -1.09976 42.8094 1.4841 41.7773C6.4056 39.8113 14.6491 36.7396 14.6491 36.7396C14.6491 36.7396 6.87301 34.1644 1.4841 31.8247Z" fill="#444444"/>
<path fillRule="evenodd" clipRule="evenodd" d="M10.5888 18.6774C11.7387 25.1258 17.0723 29.2867 23.6308 29.2444C30.2134 29.2019 35.3546 24.8963 36.5496 18.4317C38.0261 10.4451 29.9056 2.21266 28.9213 2.21266C28.1831 2.21266 25.9684 4.91584 25.9684 4.91584C25.9684 4.91584 21.6621 0.00103929 20.4318 0.000976563C19.2014 0.000913836 8.98929 9.70783 10.5888 18.6774ZM16.8637 18.3088C16.1255 15.1492 20.1857 10.6908 20.6778 10.6908C21.17 10.6908 25.9684 16.9572 25.9684 16.9572C25.9684 16.9572 28.3061 13.7626 28.9213 13.7626C29.1674 13.7626 30.5067 16.5476 30.2747 18.4317C29.8663 21.7491 26.9774 24.0067 23.6308 23.9609C18.4632 23.8901 17.6371 21.619 16.8637 18.3088Z" fill="#444444"/>
</svg>
