<svg width="67" height="60" viewBox="0 0 67 60" fill="none" xmlns="http://www.w3.org/2000/svg">
<path d="M59.98 32.6665C65.63 27.0386 65.63 17.9243 59.98 12.2964C54.98 7.3159 47.1 6.66844 41.35 10.7624L41.19 10.872C39.75 11.8979 39.42 13.8901 40.45 15.3145C41.48 16.7389 43.48 17.0776 44.91 16.0516L45.07 15.9421C48.28 13.661 52.67 14.0196 55.45 16.7987C58.6 19.9364 58.6 25.0165 55.45 28.1542L44.23 39.3503C41.08 42.488 35.98 42.488 32.83 39.3503C30.04 36.5712 29.68 32.1983 31.97 29.0108L32.08 28.8514C33.11 27.4171 32.77 25.4249 31.34 24.4089C29.91 23.3928 27.9 23.7216 26.88 25.146L26.77 25.3053C22.65 31.0229 23.3 38.8721 28.3 43.8526C33.95 49.4805 43.1 49.4805 48.75 43.8526L59.98 32.6665ZM8.02 30.3356C2.37 35.9636 2.37 45.0778 8.02 50.7057C13.02 55.6862 20.9 56.3337 26.65 52.2397L26.81 52.1302C28.25 51.1042 28.58 49.112 27.55 47.6876C26.52 46.2632 24.52 45.9245 23.09 46.9505L22.93 47.06C19.72 49.3411 15.33 48.9825 12.55 46.2034C9.4 43.0557 9.4 37.9757 12.55 34.838L23.77 23.6518C26.92 20.5141 32.02 20.5141 35.17 23.6518C37.96 26.4309 38.32 30.8038 36.03 34.0012L35.92 34.1606C34.89 35.595 35.23 37.5872 36.66 38.6032C38.09 39.6192 40.1 39.2905 41.12 37.8661L41.23 37.7067C45.35 31.9792 44.7 24.13 39.7 19.1495C34.05 13.5216 24.9 13.5216 19.25 19.1495L8.02 30.3356Z" fill="#444444"/>
</svg>
